<svg xmlns="http://www.w3.org/2000/svg" xmlns:svg="http://www.w3.org/2000/svg" id="svg2" width="32" height="32" version="1.0"><metadata id="metadata10"/><path id="path4" fill="#000" d="m3 2c-0.554 0-1 0.446-1 1v2c0 0.554 0.446 1 1 1h26c0.554 0 1-0.446 1-1v-2c0-0.554-0.446-1-1-1h-26zm0 8c-0.554 0-1 0.446-1 1v2c0 0.554 0.446 1 1 1h18c0.554 0 1-0.446 1-1v-2c0-0.554-0.446-1-1-1h-18zm0 8c-0.554 0-1 0.446-1 1v2c0 0.554 0.446 1 1 1h24c0.554 0 1-0.446 1-1v-2c0-0.554-0.446-1-1-1h-24zm0 8c-0.554 0-1 0.446-1 1v2c0 0.554 0.446 1 1 1h12c0.554 0 1-0.446 1-1v-2c0-0.554-0.446-1-1-1h-12z"/></svg>